<svg xmlns="http://www.w3.org/2000/svg" width="92" height="92.087" viewBox="0 0 92 92.087">
  <path id="Icon_weather-day-sunny" data-name="Icon weather-day-sunny" d="M5.244,50.8a3.659,3.659,0,0,1,1.083-2.686,3.743,3.743,0,0,1,2.6-1.04h8.836a3.282,3.282,0,0,1,2.512,1.083,4.069,4.069,0,0,1,.043,5.284,3.219,3.219,0,0,1-2.512,1.083H8.969a3.535,3.535,0,0,1-2.6-1.083A3.6,3.6,0,0,1,5.244,50.8ZM17.632,80.817a4.012,4.012,0,0,1,1-2.642L25,71.981a3.33,3.33,0,0,1,2.556-1,3.669,3.669,0,0,1,2.6,1,3.238,3.238,0,0,1,1.04,2.469,4.086,4.086,0,0,1-1.04,2.772L24,83.373a3.933,3.933,0,0,1-5.328,0A3.5,3.5,0,0,1,17.632,80.817Zm0-59.947a4.012,4.012,0,0,1,1-2.642A4.159,4.159,0,0,1,21.4,17.145a3.641,3.641,0,0,1,2.556,1.04l6.194,6.367a3.362,3.362,0,0,1,1.04,2.556,3.553,3.553,0,0,1-3.638,3.638A3.362,3.362,0,0,1,25,29.706l-6.324-6.194A3.626,3.626,0,0,1,17.632,20.87ZM28.677,50.8a21.862,21.862,0,0,1,3.032-11.262,22.62,22.62,0,0,1,8.273-8.273,22.221,22.221,0,0,1,20.011-1.213,22.629,22.629,0,0,1,7.19,4.851,22.728,22.728,0,0,1,6.584,15.94,21.9,21.9,0,0,1-3.032,11.305,22.716,22.716,0,0,1-8.23,8.23,22.592,22.592,0,0,1-22.61,0,22.716,22.716,0,0,1-8.23-8.23A23.013,23.013,0,0,1,28.677,50.8Zm7.363,0A15.306,15.306,0,0,0,51.287,66.133,15.38,15.38,0,0,0,66.621,50.8a14.6,14.6,0,0,0-4.5-10.7,14.841,14.841,0,0,0-10.829-4.418A14.646,14.646,0,0,0,40.545,40.1,14.437,14.437,0,0,0,36.041,50.8ZM47.562,84.5a3.4,3.4,0,0,1,1.083-2.6,3.668,3.668,0,0,1,2.6-1.04,3.626,3.626,0,0,1,2.642,1.04,3.526,3.526,0,0,1,1.04,2.6v8.62A3.659,3.659,0,0,1,53.843,95.8a3.535,3.535,0,0,1-2.6,1.083,3.467,3.467,0,0,1-2.6-1.083,3.659,3.659,0,0,1-1.083-2.685V84.5Zm0-67.137V8.525a3.535,3.535,0,0,1,1.083-2.6A3.6,3.6,0,0,1,51.287,4.8a3.467,3.467,0,0,1,2.6,1.083,3.535,3.535,0,0,1,1.083,2.6v8.879a3.282,3.282,0,0,1-1.083,2.512,3.628,3.628,0,0,1-2.6,1,3.744,3.744,0,0,1-2.6-1A3.409,3.409,0,0,1,47.562,17.361ZM71.472,74.45a3.4,3.4,0,0,1,3.422-3.422,3.669,3.669,0,0,1,2.6,1l6.324,6.194a3.77,3.77,0,0,1,1.04,2.642,3.5,3.5,0,0,1-1.04,2.556,3.857,3.857,0,0,1-5.2,0l-6.151-6.151A4.217,4.217,0,0,1,71.472,74.45Zm0-47.3a3.358,3.358,0,0,1,1-2.556l6.151-6.367a3.641,3.641,0,0,1,2.556-1.04,3.4,3.4,0,0,1,2.6,1.083,3.535,3.535,0,0,1,1.083,2.6,3.657,3.657,0,0,1-1.04,2.686l-6.324,6.194a3.82,3.82,0,0,1-2.6,1.04,3.146,3.146,0,0,1-2.426-1.04A3.669,3.669,0,0,1,71.472,27.15ZM81.261,50.8a3.874,3.874,0,0,1,1.04-2.686,3.373,3.373,0,0,1,2.469-1.04h8.75a3.676,3.676,0,0,1,2.6,6.324,3.535,3.535,0,0,1-2.6,1.083h-8.75A3.219,3.219,0,0,1,82.257,53.4,3.744,3.744,0,0,1,81.261,50.8Z" transform="translate(-5.244 -4.8)" fill="#fff"/>
</svg>
