<svg xmlns="http://www.w3.org/2000/svg" width="93" height="89.994" viewBox="0 0 93 89.994">
  <path id="Icon_weather-rain" data-name="Icon weather-rain" d="M5.568,51.413A21.422,21.422,0,0,1,10.413,37.64a21.621,21.621,0,0,1,12.247-7.761A26.474,26.474,0,0,1,32.127,14.8,25.988,25.988,0,0,1,48.95,8.928a26.685,26.685,0,0,1,25.931,20.5h1.436a22.273,22.273,0,0,1,11.126,2.916A21.876,21.876,0,0,1,98.568,51.413,22.182,22.182,0,0,1,87.98,70.435,21.1,21.1,0,0,1,77.213,73.62c-.583,0-.9-.269-.9-.763V66.89c0-.538.314-.808.9-.808a13.885,13.885,0,0,0,9.78-4.576,14.313,14.313,0,0,0,4.038-10.139,13.768,13.768,0,0,0-4.4-10.139,14.273,14.273,0,0,0-10.363-4.307H69.048c-.538,0-.808-.269-.808-.763l-.359-2.6A18.285,18.285,0,0,0,61.646,21.4,18.544,18.544,0,0,0,48.86,16.51,18.388,18.388,0,0,0,36.075,21.4a18.035,18.035,0,0,0-6.1,12.158l-.314,2.378a.793.793,0,0,1-.9.852l-2.378.135a14.993,14.993,0,0,0-9.421,4.8,13.7,13.7,0,0,0-3.813,9.69,14.313,14.313,0,0,0,4.038,10.139,13.885,13.885,0,0,0,9.78,4.576c.493,0,.763.269.763.808V72.9a.686.686,0,0,1-.763.763A21.851,21.851,0,0,1,11.714,66.8,21.224,21.224,0,0,1,5.568,51.413Zm24,30.013a3.061,3.061,0,0,1,.179-.9l7.313-25.886A3.624,3.624,0,0,1,38.5,52.669,3.754,3.754,0,0,1,40.561,52a5.029,5.029,0,0,1,1.077.135,3.375,3.375,0,0,1,2.423,1.66,3.66,3.66,0,0,1,.359,3.006L37.106,82.5a3.53,3.53,0,0,1-3.679,2.871,1.908,1.908,0,0,1-.493-.09,2.9,2.9,0,0,0-.449-.135,3.729,3.729,0,0,1-2.2-1.48A4.013,4.013,0,0,1,29.569,81.426ZM41.323,94.032,52.27,54.688a2.956,2.956,0,0,1,1.346-1.974,4.065,4.065,0,0,1,2.2-.673,5.569,5.569,0,0,1,1.211.135,3.444,3.444,0,0,1,2.2,1.75,3.743,3.743,0,0,1,.314,2.871l-10.9,39.389a3.26,3.26,0,0,1-1.3,1.929,3.655,3.655,0,0,1-2.288.808,2.939,2.939,0,0,1-1.122-.224,4.116,4.116,0,0,1-2.333-1.75A3.556,3.556,0,0,1,41.323,94.032ZM59.852,81.516a4.783,4.783,0,0,1,.179-1.032L67.344,54.6a3.723,3.723,0,0,1,1.346-1.974,3.645,3.645,0,0,1,2.064-.673,5.48,5.48,0,0,1,1.166.135,3.486,3.486,0,0,1,2.064,1.391,3.782,3.782,0,0,1,.673,2.109,5.147,5.147,0,0,1-.09.628c-.045.269-.09.449-.09.538L67.164,82.458a3.312,3.312,0,0,1-1.256,2.064,3.792,3.792,0,0,1-2.288.763l-1.077-.224a3.628,3.628,0,0,1-2.064-1.436A4.109,4.109,0,0,1,59.852,81.516Z" transform="translate(-5.568 -8.928)" fill="#fff"/>
</svg>
