<svg xmlns="http://www.w3.org/2000/svg" width="93" height="60.926" viewBox="0 0 93 60.926">
  <path id="Icon_weather-cloudy" data-name="Icon weather-cloudy" d="M4.668,51.89a17.251,17.251,0,0,1,3.894-11.1,17.393,17.393,0,0,1,9.966-6.239A21.255,21.255,0,0,1,39.464,17.8,20.735,20.735,0,0,1,52.7,22.369a20.516,20.516,0,0,1,7.537,11.724h1.131A17.8,17.8,0,0,1,79.2,51.848,17.871,17.871,0,0,1,61.364,69.686H22.548a16.874,16.874,0,0,1-6.909-1.424A18.591,18.591,0,0,1,9.9,64.535a18.609,18.609,0,0,1-3.81-5.695A17.212,17.212,0,0,1,4.668,51.89Zm6.072,0A11.263,11.263,0,0,0,14.173,60.1a11.409,11.409,0,0,0,8.333,3.434H61.364A11.381,11.381,0,0,0,69.7,60.1a11.209,11.209,0,0,0,3.475-8.207A10.986,10.986,0,0,0,69.7,43.683a11.478,11.478,0,0,0-8.333-3.434h-5.82a.555.555,0,0,1-.628-.628l-.293-2.052A15.226,15.226,0,0,0,39.381,23.835a14.888,14.888,0,0,0-10.3,3.936,14.547,14.547,0,0,0-4.941,9.8l-.293,1.759c0,.419-.209.628-.67.628l-1.884.293a11.263,11.263,0,0,0-7.579,3.727A11.75,11.75,0,0,0,10.74,51.89ZM47.8,15.376c-.419.377-.335.67.293.879a37.338,37.338,0,0,1,4.522,2.3c.461.126.8.084.921-.126A12.921,12.921,0,0,1,75.35,26.6l.377,2.68h5.946a9.585,9.585,0,0,1,7.035,2.931,9.666,9.666,0,0,1,.335,13.525,9.874,9.874,0,0,1-6.407,3.224c-.419,0-.628.209-.628.67V54.36c0,.461.209.67.628.67A15.972,15.972,0,0,0,97.668,39.16a16.012,16.012,0,0,0-16-16h-.628a18.729,18.729,0,0,0-6.909-10.343A19.233,19.233,0,0,0,47.8,15.376Z" transform="translate(-4.668 -8.76)" fill="#fff"/>
</svg>
