<svg xmlns="http://www.w3.org/2000/svg" width="93" height="89.812" viewBox="0 0 93 89.812">
  <path id="Icon_weather-snow" data-name="Icon weather-snow" d="M5.568,51.633A21.645,21.645,0,0,1,10.328,37.8a21.984,21.984,0,0,1,12.3-7.9,26.431,26.431,0,0,1,9.43-15.088A26.013,26.013,0,0,1,48.9,8.928,26.711,26.711,0,0,1,74.858,29.45h1.437A22.209,22.209,0,0,1,98.568,51.633a21.225,21.225,0,0,1-6.242,15.358,21.17,21.17,0,0,1-15.178,6.736c-.584,0-.9-.269-.9-.763V66.991c0-.539.314-.808.9-.808a13.9,13.9,0,0,0,9.789-4.58,14.425,14.425,0,0,0-.314-20.342A14.182,14.182,0,0,0,76.2,36.9h-7.23c-.539,0-.808-.269-.808-.763l-.359-2.6a19.215,19.215,0,0,0-19.04-17.154,18.4,18.4,0,0,0-12.843,4.985,18.42,18.42,0,0,0-6.152,12.349L29.5,35.961a.793.793,0,0,1-.9.853l-2.38.314a13.837,13.837,0,0,0-9.43,4.67,14.5,14.5,0,0,0,.225,19.848,14.08,14.08,0,0,0,9.789,4.58c.494,0,.763.269.763.808v5.972a.687.687,0,0,1-.763.763A21.372,21.372,0,0,1,11.54,67.036,22.314,22.314,0,0,1,5.568,51.633ZM34.128,69.91a3.6,3.6,0,0,1,1.078-2.6,3.554,3.554,0,0,1,2.649-1.078A3.747,3.747,0,0,1,40.5,72.6a3.432,3.432,0,0,1-2.649,1.123A3.5,3.5,0,0,1,35.206,72.6,3.656,3.656,0,0,1,34.128,69.91Zm0,16.3a3.607,3.607,0,0,1,3.682-3.727,3.772,3.772,0,0,1,2.649,1.033,3.8,3.8,0,0,1,0,5.3,3.519,3.519,0,0,1-2.649,1.033,3.772,3.772,0,0,1-2.649-1.033A3.59,3.59,0,0,1,34.128,86.211Zm14.325-7.634a3.94,3.94,0,0,1,1.123-2.784,3.5,3.5,0,0,1,2.56-1.078A3.993,3.993,0,0,1,56,78.577a3.833,3.833,0,0,1-3.862,3.817,3.4,3.4,0,0,1-2.6-1.123A3.8,3.8,0,0,1,48.453,78.577Zm0-16.256a3.665,3.665,0,0,1,1.123-2.694,3.81,3.81,0,0,1,2.56-1.078,3.693,3.693,0,0,1,2.739,1.123A3.6,3.6,0,0,1,56,62.366a3.5,3.5,0,0,1-1.123,2.649,3.832,3.832,0,0,1-2.739,1.078,3.525,3.525,0,0,1-2.6-1.078A3.8,3.8,0,0,1,48.453,62.321Zm0,32.691a3.838,3.838,0,0,1,1.123-2.739,3.5,3.5,0,0,1,2.56-1.078A3.833,3.833,0,0,1,56,95.012a3.5,3.5,0,0,1-1.123,2.649,3.832,3.832,0,0,1-2.739,1.078,3.525,3.525,0,0,1-2.6-1.078A3.7,3.7,0,0,1,48.453,95.012Zm14.46-25.1a3.541,3.541,0,0,1,1.123-2.6,3.665,3.665,0,0,1,2.694-1.123,3.747,3.747,0,0,1,2.649,6.377,3.432,3.432,0,0,1-2.649,1.123,3.527,3.527,0,0,1-2.694-1.123A3.667,3.667,0,0,1,62.913,69.91Zm0,16.3a3.683,3.683,0,0,1,3.817-3.727,3.7,3.7,0,0,1,2.649,1.033,3.453,3.453,0,0,1,1.033,2.649,3.7,3.7,0,0,1-1.033,2.649,3.519,3.519,0,0,1-2.649,1.033,3.656,3.656,0,0,1-2.694-1.078A3.4,3.4,0,0,1,62.913,86.211Z" transform="translate(-5.568 -8.928)" fill="#fff"/>
</svg>
