<svg xmlns="http://www.w3.org/2000/svg" width="93.427" height="86.213" viewBox="0 0 93.427 86.213">
  <path id="Icon_weather-day-sunny-overcast" data-name="Icon weather-day-sunny-overcast" d="M3.708,49.389a3.435,3.435,0,0,0,1.1,2.627,3.913,3.913,0,0,0,2.823,1.019h6.626a3.79,3.79,0,0,0,2.705-1.059A3.446,3.446,0,0,0,18.1,49.389,3.663,3.663,0,0,0,17,46.605a3.825,3.825,0,0,0-2.705-1.1H7.629a3.811,3.811,0,0,0-2.823,1.1A3.549,3.549,0,0,0,3.708,49.389Zm6.939,24.229A13.487,13.487,0,0,0,14.8,83.5a13.4,13.4,0,0,0,9.841,4.156h26.9A13.215,13.215,0,0,0,61.3,83.537a13.615,13.615,0,0,0,4.077-9.919,12.654,12.654,0,0,0-.823-4.822,22.491,22.491,0,0,0,7.724-8.312,23.1,23.1,0,0,0,.98-20.269A23.263,23.263,0,0,0,60.752,27.708a22.635,22.635,0,0,0-9.1-1.882A23,23,0,0,0,39.816,29a23.509,23.509,0,0,0-8.547,8.547,23.178,23.178,0,0,0-3.1,11.8v1.333a16.082,16.082,0,0,0-7.763,9.762,13.636,13.636,0,0,0-7.1,4.979A13.49,13.49,0,0,0,10.647,73.618ZM16.764,18.1a3.483,3.483,0,0,0,1.019,2.627l6.312,6.626a4.138,4.138,0,0,0,5.528,0,3.694,3.694,0,0,0,1.1-2.744,3.819,3.819,0,0,0-1.1-2.744L23.154,15.4A4.067,4.067,0,0,0,20.41,14.26a3.406,3.406,0,0,0-2.666,1.1A3.93,3.93,0,0,0,16.764,18.1ZM18.41,73.618a6.1,6.1,0,0,1,1.568-4.234,5.975,5.975,0,0,1,4-2l2.431-.314c.51,0,.784-.314.784-.9l.353-2.2a8.756,8.756,0,0,1,2.862-5.646,8.21,8.21,0,0,1,5.8-2.274,8.423,8.423,0,0,1,5.92,2.274,8.856,8.856,0,0,1,2.94,5.646l.314,2.548c.235.588.549.9.941.9H51.5a6.111,6.111,0,0,1,4.391,1.843,5.836,5.836,0,0,1,1.843,4.391,6.248,6.248,0,0,1-1.843,4.509A5.934,5.934,0,0,1,51.5,80.048H24.644a5.837,5.837,0,0,1-4.43-1.882A6.3,6.3,0,0,1,18.41,73.618ZM35.739,48.565a15.9,15.9,0,0,1,4.979-10.821,15.314,15.314,0,0,1,10.938-4.391,15.1,15.1,0,0,1,11.134,4.665,15.56,15.56,0,0,1,4.587,11.33,15.248,15.248,0,0,1-2,7.645,16,16,0,0,1-5.41,5.685,12.108,12.108,0,0,0-7.959-2.862,15.929,15.929,0,0,0-6.038-8.194,16.377,16.377,0,0,0-9.723-3.058h-.51ZM47.854,14.26A3.791,3.791,0,0,0,48.991,17a3.862,3.862,0,0,0,6.587-2.744V5.086A3.446,3.446,0,0,0,54.44,2.5a4.036,4.036,0,0,0-5.45,0,3.446,3.446,0,0,0-1.137,2.588Zm24.778,59.71a3.951,3.951,0,0,0,1.059,2.744l6.43,6.351q2.47,2.47,5.528,0A3.431,3.431,0,0,0,86.667,80.4a3.672,3.672,0,0,0-1.019-2.627l-6.626-6.547a3.737,3.737,0,0,0-2.666-.98A3.574,3.574,0,0,0,73.69,71.3,3.635,3.635,0,0,0,72.632,73.971Zm0-49.438a4.074,4.074,0,0,0,1.059,2.823,3.886,3.886,0,0,0,5.332,0l6.626-6.626A3.4,3.4,0,0,0,86.667,18.1,3.579,3.579,0,0,0,85.53,15.4a3.85,3.85,0,0,0-2.744-1.1,3.68,3.68,0,0,0-2.666,1.137l-6.43,6.391A3.663,3.663,0,0,0,72.632,24.532ZM82.747,49.389a3.435,3.435,0,0,0,1.1,2.627,3.913,3.913,0,0,0,2.823,1.019h6.626A3.79,3.79,0,0,0,96,51.976a3.446,3.446,0,0,0,1.137-2.588,3.663,3.663,0,0,0-1.1-2.784,3.825,3.825,0,0,0-2.705-1.1H86.707a3.811,3.811,0,0,0-2.823,1.1A3.574,3.574,0,0,0,82.747,49.389Z" transform="translate(-3.708 -1.44)" fill="#fff"/>
</svg>
